<svg width="430" height="860" xmlns="http://www.w3.org/2000/svg" xmlns:xlink="http://www.w3.org/1999/xlink" xml:space="preserve" overflow="hidden"><g transform="translate(-935 -275)"><path d="M1150 282 1338.36 831.567 1337.38 831.567 1341.65 839.439C1352.18 864.29 1358 891.611 1358 920.289 1358 1035 1264.88 1128 1150 1128 1035.12 1128 942 1035 942 920.289 942 891.611 947.82 864.29 958.346 839.439L962.624 831.567 961.635 831.567Z" stroke="#C00000" stroke-width="13.75" stroke-linejoin="round" stroke-miterlimit="10" fill="#E46C0A" fill-rule="evenodd"/><path d="M1011.5 921C1011.5 845.061 1073.51 783.5 1150 783.5 1226.49 783.5 1288.5 845.061 1288.5 921 1288.5 996.939 1226.49 1058.5 1150 1058.5 1073.51 1058.5 1011.5 996.939 1011.5 921Z" stroke="#FFFF00" stroke-width="9.16667" stroke-linejoin="round" stroke-miterlimit="10" fill="#C00000" fill-rule="evenodd"/><text fill="#FFC000" font-family="STHupo,STHupo_MSFontService,sans-serif" font-weight="400" font-size="83" transform="matrix(1 0 0 1 1065.6 950)">开始</text></g></svg>