<svg width="1009" height="1010" xmlns="http://www.w3.org/2000/svg" xmlns:xlink="http://www.w3.org/1999/xlink" xml:space="preserve" overflow="hidden"><defs><clipPath id="clip0"><path d="M1157.39 307.563 1311.72 245.208 1374.08 399.543 1219.74 461.898Z" fill-rule="evenodd" clip-rule="evenodd"/></clipPath><clipPath id="clip1"><path d="M1157.39 307.563 1311.72 245.208 1374.08 399.543 1219.74 461.898Z" fill-rule="evenodd" clip-rule="evenodd"/></clipPath><clipPath id="clip2"><path d="M1157.39 307.563 1311.72 245.208 1374.08 399.543 1219.74 461.898Z" fill-rule="evenodd" clip-rule="evenodd"/></clipPath><clipPath id="clip3"><path d="M1486.92 279.39 1615.28 341.998 1558.88 457.642 1430.51 395.034Z" fill-rule="evenodd" clip-rule="evenodd"/></clipPath><clipPath id="clip4"><path d="M1486.92 279.39 1615.28 341.998 1558.88 457.642 1430.51 395.034Z" fill-rule="evenodd" clip-rule="evenodd"/></clipPath><clipPath id="clip5"><path d="M1486.92 279.39 1615.28 341.998 1558.88 457.642 1430.51 395.034Z" fill-rule="evenodd" clip-rule="evenodd"/></clipPath><clipPath id="clip6"><path d="M1782.05 746.442 1719.45 874.807 1603.8 818.404 1666.41 690.038Z" fill-rule="evenodd" clip-rule="evenodd"/></clipPath><clipPath id="clip7"><path d="M1782.05 746.442 1719.45 874.807 1603.8 818.404 1666.41 690.038Z" fill-rule="evenodd" clip-rule="evenodd"/></clipPath><clipPath id="clip8"><path d="M1782.05 746.442 1719.45 874.807 1603.8 818.404 1666.41 690.038Z" fill-rule="evenodd" clip-rule="evenodd"/></clipPath><clipPath id="clip9"><path d="M1749.26 447.269 1793.31 591.331 1649.25 635.375 1605.2 491.313Z" fill-rule="evenodd" clip-rule="evenodd"/></clipPath><clipPath id="clip10"><path d="M1749.26 447.269 1793.31 591.331 1649.25 635.375 1605.2 491.313Z" fill-rule="evenodd" clip-rule="evenodd"/></clipPath><clipPath id="clip11"><path d="M1749.26 447.269 1793.31 591.331 1649.25 635.375 1605.2 491.313Z" fill-rule="evenodd" clip-rule="evenodd"/></clipPath><clipPath id="clip12"><path d="M1181.05 994.674 1236.12 843.348 1387.45 898.426 1332.37 1049.75Z" fill-rule="evenodd" clip-rule="evenodd"/></clipPath><clipPath id="clip13"><path d="M1181.05 994.674 1236.12 843.348 1387.45 898.426 1332.37 1049.75Z" fill-rule="evenodd" clip-rule="evenodd"/></clipPath><clipPath id="clip14"><path d="M1181.05 994.674 1236.12 843.348 1387.45 898.426 1332.37 1049.75Z" fill-rule="evenodd" clip-rule="evenodd"/></clipPath><clipPath id="clip15"><path d="M977.808 588.457 1045.71 420.399 1213.77 488.299 1145.87 656.357Z" fill-rule="evenodd" clip-rule="evenodd"/></clipPath><clipPath id="clip16"><path d="M977.808 588.457 1045.71 420.399 1213.77 488.299 1145.87 656.357Z" fill-rule="evenodd" clip-rule="evenodd"/></clipPath><clipPath id="clip17"><path d="M977.808 588.457 1045.71 420.399 1213.77 488.299 1145.87 656.357Z" fill-rule="evenodd" clip-rule="evenodd"/></clipPath><clipPath id="clip18"><path d="M1057.97 880.005 1001.75 733.555 1148.2 677.338 1204.42 823.788Z" fill-rule="evenodd" clip-rule="evenodd"/></clipPath><clipPath id="clip19"><path d="M1057.97 880.005 1001.75 733.555 1148.2 677.338 1204.42 823.788Z" fill-rule="evenodd" clip-rule="evenodd"/></clipPath><clipPath id="clip20"><path d="M1057.97 880.005 1001.75 733.555 1148.2 677.338 1204.42 823.788Z" fill-rule="evenodd" clip-rule="evenodd"/></clipPath><clipPath id="clip21"><path d="M1626.55 989.193 1483.24 1053 1419.44 909.69 1562.75 845.886Z" fill-rule="evenodd" clip-rule="evenodd"/></clipPath><clipPath id="clip22"><path d="M1626.55 989.193 1483.24 1053 1419.44 909.69 1562.75 845.886Z" fill-rule="evenodd" clip-rule="evenodd"/></clipPath><clipPath id="clip23"><path d="M1626.55 989.193 1483.24 1053 1419.44 909.69 1562.75 845.886Z" fill-rule="evenodd" clip-rule="evenodd"/></clipPath></defs><g transform="translate(-897 -152)"><path d="M901.5 657C901.5 380.581 1125.36 156.5 1401.5 156.5 1677.64 156.5 1901.5 380.581 1901.5 657 1901.5 933.418 1677.64 1157.5 1401.5 1157.5 1125.36 1157.5 901.5 933.418 901.5 657Z" stroke="#C00000" stroke-width="9.16667" stroke-linejoin="round" stroke-miterlimit="10" fill="#F79646" fill-rule="evenodd"/><path d="M940 656.5C940 401.62 1146.4 195 1401 195 1655.6 195 1862 401.62 1862 656.5 1862 911.379 1655.6 1118 1401 1118 1146.4 1118 940 911.379 940 656.5Z" stroke="#E46C0A" stroke-width="10.3125" stroke-linejoin="round" stroke-miterlimit="10" fill="#FFD4A9" fill-rule="evenodd"/><path d="M940.5 656.5 1862.94 656.5" stroke="#E46C0A" stroke-width="4.58333" stroke-linejoin="round" stroke-miterlimit="10" fill="none" fill-rule="evenodd"/><path d="M1401.5 196.5 1401.5 1118.94" stroke="#E46C0A" stroke-width="4.58333" stroke-linejoin="round" stroke-miterlimit="10" fill="none" fill-rule="evenodd"/><path d="M1075.65 330.62 1727.91 982.884" stroke="#E46C0A" stroke-width="4.58333" stroke-linejoin="round" stroke-miterlimit="10" fill="none" fill-rule="evenodd"/><path d="M1726.95 331.576 1074.69 983.84" stroke="#E46C0A" stroke-width="4.58333" stroke-linejoin="round" stroke-miterlimit="10" fill="none" fill-rule="evenodd"/><g clip-path="url(#clip0)"><g clip-path="url(#clip1)"><g clip-path="url(#clip2)"><path d="M1345.5 399.64 1298.62 430.03 1243.79 440.734 1206.67 348.866 1308.38 307.772 1345.5 399.64Z" fill="#D4237A"/><path d="M1324.77 301.15 1261.5 338.161 1190.28 355.487 1178.32 325.882 1249.54 308.554 1312.81 271.544 1324.77 301.15Z" fill="#D4237A"/><path d="M1211.33 296.264 1216.71 283.597 1246.47 296.231 1241.09 308.898 1211.33 296.264Z" fill="#D4237A"/><path d="M1255.86 302.933 1243.19 297.556 1255.82 267.793 1268.49 273.17 1255.86 302.933Z" fill="#D4237A"/><path d="M1312.81 271.544 1249.54 308.554 1178.32 325.882 1241.59 288.871 1312.81 271.544Z" fill="#D4237A"/><path d="M1325.33 302.533 1262.06 339.542 1190.84 356.87 1190.28 355.487 1261.5 338.161 1324.77 301.15 1325.33 302.533ZM1227.66 400.81 1329.37 359.716 1330.38 362.208 1228.67 403.302Z" fill="#D4237A"/><path d="M1241.59 288.871 1242.64 288.615 1299.54 429.438 1298.62 430.03 1297.55 430.239 1240.66 289.416 1241.59 288.871Z" fill="#D4237A"/></g></g></g><g clip-path="url(#clip3)"><g clip-path="url(#clip4)"><g clip-path="url(#clip5)"><path d="M1437 398.115 1458.9 353.224 1503.79 375.118 1481.89 420.009 1437 398.115ZM1507.62 432.556 1529.51 387.665 1574.4 409.56 1552.51 454.451 1507.62 432.556ZM1455.59 343.618 1471.24 311.538 1522.58 336.582 1506.94 368.662 1455.59 343.618ZM1548.31 349.129 1599.55 374.123 1583.91 406.202 1532.66 381.208 1548.31 349.129ZM1488.35 423.158 1529.04 339.731 1541.85 345.98 1501.16 429.407 1488.35 423.158ZM1560.8 323.507 1551.41 342.775 1525.68 330.228 1535.08 310.96 1560.8 323.507ZM1602.39 335.795 1589.84 361.52 1557.76 345.874 1582.91 326.297 1602.39 335.795ZM1518.96 295.105 1519.33 327.129 1487.25 311.482 1499.8 285.757 1518.96 295.105Z" fill="#D81E06"/></g></g></g><g clip-path="url(#clip6)"><g clip-path="url(#clip7)"><g clip-path="url(#clip8)"><path d="M1663.33 696.529 1708.22 718.424 1686.33 763.314 1641.44 741.42 1663.33 696.529ZM1628.89 767.145 1673.78 789.039 1651.88 833.93 1606.99 812.035 1628.89 767.145ZM1717.83 715.116 1749.91 730.762 1724.86 782.11 1692.78 766.463 1717.83 715.116ZM1712.32 807.835 1687.32 859.08 1655.24 843.433 1680.24 792.188 1712.32 807.835ZM1638.29 747.876 1721.71 788.566 1715.46 801.378 1632.04 760.688 1638.29 747.876ZM1737.94 820.332 1718.67 810.934 1731.22 785.209 1750.48 794.607 1737.94 820.332ZM1725.65 861.915 1699.92 849.368 1715.57 817.288 1735.15 842.441 1725.65 861.915ZM1766.34 778.488 1734.32 778.854 1749.96 746.775 1775.69 759.322 1766.34 778.488Z" fill="#D81E06"/></g></g></g><path d="M1349.5 656.5C1349.5 627.781 1372.78 604.5 1401.5 604.5 1430.22 604.5 1453.5 627.781 1453.5 656.5 1453.5 685.219 1430.22 708.5 1401.5 708.5 1372.78 708.5 1349.5 685.219 1349.5 656.5Z" stroke="#C00000" stroke-width="9.16667" stroke-linejoin="round" stroke-miterlimit="10" fill="#C0504D" fill-rule="evenodd"/><g clip-path="url(#clip9)"><g clip-path="url(#clip10)"><g clip-path="url(#clip11)"><path d="M1753.87 583.139 1748.13 564.516C1751.92 567.476 1754.61 568.948 1755.12 569.216 1759.5 571.722 1764.03 572.539 1768.24 571.578 1772.15 570.685 1775.52 568.293 1777.73 564.842 1780.23 560.933 1780.99 556.175 1779.86 551.444 1778.64 546.344 1775.32 541.728 1770.26 538.086 1769.23 537.156 1764.56 533.255 1754.65 529.185 1743.59 524.282 1729.02 528.953 1727.88 529.33L1691.74 540.382 1675.06 485.836 1709.44 475.325C1711.81 474.599 1714.34 475.941 1715.06 478.315L1724.21 508.266C1724.21 508.266 1724.21 508.266 1724.21 508.266 1724.68 509.793 1726.19 510.78 1727.77 510.549 1729.35 510.318 1730.52 509.004 1730.53 507.413 1730.55 507.094 1730.95 501.543 1735.91 490.037 1737.15 487.169 1739.05 485.165 1741.41 484.241 1743.5 483.42 1745.9 483.471 1748.17 484.385 1753.43 486.508 1757.46 493.093 1753.9 502.537 1753.82 502.756 1753.79 502.793 1753.76 502.997 1753.66 503.326 1753.13 504.925 1751.06 509.039 1750.52 510.007 1747.29 516.086 1747.74 521.134 1747.9 522.911 1749.47 524.225 1751.24 524.066 1753.02 523.907 1754.33 522.337 1754.18 520.559 1753.96 518.144 1755.63 514.109 1756.73 512.137 1756.75 512.095 1756.78 512.052 1756.8 512.009 1759.05 507.543 1759.78 505.504 1760.02 504.647 1764.76 491.825 1758.89 481.741 1750.59 478.391 1746.79 476.856 1742.69 476.796 1739.05 478.222 1735.05 479.789 1731.91 482.99 1729.97 487.477 1728.73 490.37 1727.74 492.925 1726.97 495.154L1721.24 476.426C1719.48 470.641 1713.33 467.374 1707.55 469.143L1620.2 495.847C1614.42 497.615 1611.15 503.76 1612.92 509.544L1645.55 616.264C1647.31 622.049 1653.46 625.316 1659.24 623.547L1746.59 596.843C1752.37 595.075 1755.64 588.93 1753.87 583.139ZM1729.9 535.471C1729.94 535.46 1733.22 534.36 1737.7 533.774 1741.71 533.249 1747.46 533.055 1752.06 535.11 1752.09 535.123 1752.12 535.135 1752.15 535.148 1761.77 539.096 1765.77 542.736 1765.96 542.918 1766.09 543.044 1766.2 543.132 1766.35 543.236 1774.64 549.117 1775.24 556.751 1772.29 561.355 1770.07 564.822 1765.07 567.484 1758.29 563.581 1758.25 563.558 1758.2 563.533 1758.16 563.512 1758.09 563.477 1751.5 559.997 1743.89 551.878 1742.86 550.78 1741.21 550.537 1739.91 551.293 1738.61 552.047 1738 553.597 1738.44 555.033 1738.44 555.036 1738.44 555.038 1738.44 555.04L1747.69 585.037C1748.42 587.412 1747.07 589.935 1744.7 590.661L1710.32 601.172 1693.62 546.564 1729.81 535.5C1729.84 535.491 1729.87 535.481 1729.9 535.471ZM1622.09 502.029 1668.88 487.726 1685.55 542.272 1634.46 557.892 1619.1 507.654C1618.37 505.279 1619.72 502.756 1622.09 502.029ZM1651.73 614.375 1636.35 564.075 1687.44 548.454 1704.14 603.062 1657.35 617.365C1654.98 618.091 1652.45 616.75 1651.73 614.375Z" fill="#FF9000"/></g></g></g><g clip-path="url(#clip12)"><g clip-path="url(#clip13)"><g clip-path="url(#clip14)"><path d="M1256.22 950.737C1253.52 949.994 1250.86 950.246 1248.91 951.299 1240.21 937.789 1245.24 915.001 1252.78 915.609 1259.99 916.185 1277.15 921.679 1279.38 924.377 1282.11 927.688 1273.72 946.15 1262.5 955.003 1261.34 953.331 1259.49 951.888 1257.17 951.042 1257.17 951.042 1253.52 937.678 1261.07 925.841 1253.17 936.1 1256.22 950.737 1256.22 950.737L1256.22 950.737 1256.22 950.737 1256.22 950.737ZM1310.32 942.305C1305.91 941.112 1297.16 934.409 1292.56 929.173 1291.4 931.466 1284.65 935.454 1276.84 939.479 1273.52 945.525 1268.63 952.002 1263.11 956.073 1263.32 956.493 1263.48 956.928 1263.58 957.36 1276.02 956.123 1303.21 952.31 1310.32 942.304L1310.32 942.304 1310.32 942.304 1310.32 942.305ZM1225.21 991.362C1231.1 995.557 1247.78 1002.38 1251.22 1001.74 1255.44 1000.96 1260.88 981.43 1257.97 967.431 1256.01 967.968 1253.67 967.884 1251.34 967.039 1251.34 967.039 1239.96 974.931 1238.14 988.842 1238.68 975.917 1250.43 966.665 1250.43 966.665 1247.88 965.498 1246 963.593 1245.19 961.527 1229.84 966.282 1219.04 986.982 1225.21 991.361L1225.21 991.361 1225.21 991.361 1225.21 991.362ZM1258.98 988.541C1262.38 996.645 1264.99 1004.04 1264.4 1006.54 1271.29 1005.49 1282.3 1005.98 1286.44 1007.9 1287.43 995.663 1269.05 975.265 1260.32 966.322 1259.96 966.588 1259.56 966.806 1259.13 967.007 1260.74 973.673 1260.32 981.775 1258.98 988.541L1258.98 988.541 1258.98 988.541 1258.98 988.541ZM1256.8 952.044C1252.63 950.528 1248.34 951.813 1247.21 954.914L1246.21 957.675C1245.08 960.776 1247.54 964.512 1251.71 966.029 1255.88 967.545 1260.18 966.271 1261.3 963.17L1262.31 960.409C1263.44 957.308 1260.97 953.561 1256.8 952.044L1256.8 952.044 1256.8 952.044 1256.8 952.044ZM1222.46 995.23C1219.87 993.403 1218.83 990.425 1218.72 987.935 1218.59 985.365 1219.14 982.871 1220.05 980.326 1222.5 973.848 1227.56 966.657 1234.6 961.685L1208.33 952.124 1201.58 970.661C1198.07 980.303 1203.09 991.068 1212.74 994.578L1230.96 1001.21 1231.35 1000.15C1227.92 998.535 1224.75 996.832 1222.46 995.23L1222.46 995.23 1222.46 995.23 1222.46 995.23ZM1236.32 875.232 1214.58 934.963 1240.94 944.56C1238.69 936.169 1239.43 927.336 1241.74 920.75 1242.67 918.212 1243.85 915.958 1245.61 914.075 1247.29 912.233 1250 910.623 1253.16 910.887L1253.16 910.888C1255.94 911.13 1259.46 911.864 1263.13 912.834L1278.46 870.722 1260.23 864.088C1250.59 860.579 1239.83 865.59 1236.32 875.232L1236.32 875.232 1236.32 875.232 1236.32 875.232ZM1283.04 921.37C1284.89 923.87 1284.67 925.936 1284.55 927.816 1284.47 928.527 1284.33 929.247 1284.16 929.985 1286.39 928.649 1288.07 927.252 1288.41 926.891L1291.49 920.789 1296.12 926.043C1297.99 928.188 1300.93 930.865 1303.85 933.091 1306.72 935.311 1309.76 937.128 1311.18 937.607 1311.32 937.657 1311.44 937.701 1311.55 937.722L1318.12 939.498 1314.18 945.048C1308.99 951.964 1299.74 955.117 1290.12 957.717 1287.41 958.405 1284.68 958.987 1281.99 959.501L1345.07 982.458 1366.81 922.727C1370.31 913.085 1365.3 902.332 1355.66 898.822L1294.64 876.612 1279.34 918.646C1280.64 919.333 1281.75 919.94 1283.04 921.371L1283.04 921.371 1283.04 921.371 1283.04 921.37ZM1259.74 1005.61C1259.73 1005.44 1259.7 1005.1 1259.61 1004.67 1259.46 1003.8 1259.13 1002.54 1258.66 1001.08 1258.61 1000.9 1258.54 1000.71 1258.48 1000.54 1258.14 1001.2 1257.78 1001.84 1257.39 1002.44 1256.27 1003.96 1255.11 1005.69 1252.07 1006.4 1250.19 1006.67 1248.94 1006.43 1247.5 1006.11L1247.14 1007.1 1258.44 1011.21 1259.74 1005.64C1259.74 1005.63 1259.74 1005.62 1259.74 1005.61L1259.74 1005.61 1259.74 1005.61 1259.74 1005.61ZM1291.16 1008.28 1290.62 1015.04 1284.46 1012.2C1284.38 1012.17 1284.25 1012.11 1284.09 1012.05 1282.69 1011.51 1279.19 1010.94 1275.55 1010.81 1271.9 1010.64 1267.93 1010.79 1265.11 1011.22L1260.43 1011.94 1308.17 1029.31C1317.81 1032.82 1328.56 1027.8 1332.07 1018.16L1338.82 999.619 1275.99 976.75C1277.65 978.797 1279.3 980.928 1280.88 983.118 1286.57 991.282 1291.64 999.646 1291.16 1008.28L1291.16 1008.28 1291.16 1008.28 1291.16 1008.28Z" fill="#D81E06"/></g></g></g><g clip-path="url(#clip15)"><g clip-path="url(#clip16)"><g clip-path="url(#clip17)"><path d="M1076.78 465.407C1076.03 458.288 1074.04 452.959 1070.83 449.467 1068.43 446.856 1064.07 443.948 1056.99 444.887 1047.3 446.184 1044.45 452.288 1043.61 455.825 1042.2 461.839 1044.22 469.722 1049.32 478.042 1051.95 482.311 1055.22 486.441 1058.86 490.089 1049.49 489.758 1040.49 495.225 1036.77 504.416 1032.95 513.869 1035.89 524.371 1043.31 530.577 1037.89 530.62 1032.38 531.315 1027.26 532.628 1017.82 535.074 1010.88 539.336 1007.73 544.647 1005.87 547.773 1003.66 554.135 1009.75 561.805 1014.19 567.398 1019.35 568.337 1022.89 568.125 1027.62 567.843 1032.75 565.392 1038.24 560.793L1027.88 586.444 1059.39 599.176 1063.66 588.59 1136.86 618.164C1142.65 620.504 1149.27 617.697 1151.61 611.904L1194.05 506.868C1196.39 501.074 1193.58 494.461 1187.79 492.12L1114.59 462.547 1118.87 451.961 1087.35 439.23 1076.78 465.407ZM1060.55 529.2 1071.09 503.105 1086.19 509.206 1075.65 535.3 1060.55 529.2ZM1056.86 473.414C1053.1 467.274 1051.36 461.457 1052.22 457.854 1052.28 457.571 1052.37 457.302 1052.47 457.056 1053.46 454.594 1055.99 453.932 1058.14 453.657 1061.73 453.18 1063.37 454.454 1064.3 455.46 1066.05 457.369 1068.9 462.661 1068.14 476.77 1067.96 480.095 1067.62 483.26 1067.26 485.901 1063.28 482.288 1059.64 477.956 1056.86 473.414ZM1044.98 507.731C1047.83 500.674 1055.79 497.188 1062.88 499.806L1052.35 525.868C1045.43 522.823 1042.13 514.789 1044.98 507.731ZM1022.37 559.305C1021 559.382 1018.93 559.158 1016.68 556.32 1015.33 554.609 1013.97 552.399 1014.96 549.937 1015.06 549.691 1015.18 549.435 1015.34 549.193 1017.24 546.007 1022.53 543.028 1029.48 541.218 1034.62 539.878 1040.25 539.286 1045.64 539.46 1044.09 541.584 1042.17 544.072 1040 546.556 1030.7 557.289 1024.95 559.146 1022.37 559.305ZM1054.5 587.654 1039.4 581.554 1056.41 539.441C1056.91 538.67 1057.22 538.201 1057.25 538.119 1057.36 537.936 1057.47 537.729 1057.55 537.532L1072.32 543.5 1054.48 587.648ZM1119.48 474.068 1184.47 500.326C1185.73 500.837 1186.35 502.288 1185.84 503.552L1143.4 608.588C1142.89 609.852 1141.44 610.468 1140.18 609.958L1066.98 580.384 1111.27 470.753 1119.48 474.068ZM1107.34 456.852 1089.51 501 1074.69 495.012C1074.7 494.979 1074.71 494.963 1074.7 494.923 1074.72 494.835 1074.84 494.293 1075.02 493.389L1092.24 450.751 1107.34 456.852Z" fill="#C7DDD6"/><path d="M1073 473.808C1072.25 466.69 1070.26 461.361 1067.05 457.869 1064.65 455.257 1060.29 452.35 1053.21 453.288 1043.52 454.586 1040.67 460.69 1039.84 464.227 1038.42 470.241 1040.45 478.123 1045.54 486.444 1048.17 490.713 1051.45 494.843 1055.09 498.491 1045.71 498.159 1036.71 503.627 1033 512.818 1029.18 522.271 1032.11 532.773 1039.53 538.978 1034.11 539.022 1028.6 539.716 1023.49 541.03 1014.04 543.475 1007.11 547.737 1003.95 553.048 1002.1 556.174 999.888 562.537 1005.97 570.207 1010.41 575.8 1015.57 576.738 1019.11 576.527 1023.85 576.244 1028.98 573.793 1034.46 569.194L1024.1 594.846 1055.61 607.577 1059.89 596.992 1133.08 626.565C1138.88 628.906 1145.49 626.099 1147.83 620.305L1190.27 515.269C1192.61 509.476 1189.8 502.863 1184.01 500.522L1110.81 470.948 1115.09 460.363 1083.58 447.631 1073 473.808ZM1056.77 537.602 1067.32 511.507 1082.42 517.607 1071.87 543.702 1056.77 537.602ZM1053.08 481.815C1049.32 475.676 1047.58 469.858 1048.45 466.255 1048.51 465.973 1048.59 465.704 1048.69 465.457 1049.69 462.996 1052.21 462.334 1054.36 462.059 1057.95 461.581 1059.6 462.856 1060.53 463.862 1062.27 465.771 1065.12 471.063 1064.36 485.171 1064.18 488.497 1063.84 491.661 1063.48 494.303 1059.5 490.69 1055.87 486.358 1053.08 481.815ZM1041.2 516.133C1044.05 509.076 1052.01 505.59 1059.1 508.208L1048.57 534.27C1041.65 531.225 1038.35 523.19 1041.2 516.133ZM1018.59 567.706C1017.22 567.784 1015.15 567.559 1012.9 564.722 1011.55 563.011 1010.19 560.801 1011.19 558.339 1011.29 558.093 1011.41 557.837 1011.56 557.594 1013.46 554.409 1018.75 551.43 1025.71 549.62 1030.85 548.28 1036.47 547.688 1041.86 547.861 1040.32 549.986 1038.39 552.474 1036.23 554.958 1026.93 565.691 1021.17 567.547 1018.59 567.706ZM1050.72 596.056 1035.62 589.956 1052.64 547.843C1053.14 547.072 1053.44 546.603 1053.48 546.521 1053.59 546.337 1053.69 546.13 1053.77 545.934L1068.54 551.901 1050.7 596.049ZM1115.7 482.47 1180.69 508.728C1181.96 509.238 1182.57 510.69 1182.06 511.954L1139.63 616.99C1139.11 618.253 1137.66 618.87 1136.4 618.359L1063.2 588.786 1107.5 479.154 1115.7 482.47ZM1103.57 465.253 1085.73 509.401 1070.91 503.414C1070.92 503.381 1070.93 503.364 1070.93 503.325 1070.94 503.236 1071.07 502.694 1071.24 501.791L1088.47 459.153 1103.57 465.253Z" fill="#296251"/><path d="M1154.79 525.296C1154.53 525.953 1154.12 526.55 1153.55 527.008L1145.69 533.663 1146.72 543.912C1146.88 545.582 1146.09 547.21 1144.66 548.102 1143.23 548.995 1141.42 549.005 1139.99 548.103L1131.22 542.688 1121.79 546.84C1120.25 547.518 1118.45 547.265 1117.17 546.176 1115.88 545.104 1115.32 543.369 1115.72 541.734L1118.16 531.724 1111.3 524.028C1110.19 522.775 1109.88 520.989 1110.51 519.43 1111.14 517.871 1112.6 516.801 1114.27 516.676L1124.55 515.903 1129.75 507.006C1130.6 505.556 1132.2 504.714 1133.88 504.818 1135.56 504.946 1137.03 505.996 1137.66 507.55L1141.56 517.086 1151.63 519.283C1153.28 519.644 1154.59 520.898 1154.99 522.533 1155.22 523.483 1155.14 524.443 1154.79 525.296ZM1136.96 530.135C1137.22 529.479 1137.65 528.889 1138.2 528.424L1140.99 526.057 1137.41 525.279C1135.99 524.972 1134.8 523.978 1134.26 522.632L1132.86 519.241 1131.01 522.407C1130.28 523.657 1128.97 524.484 1127.51 524.584L1123.85 524.86 1126.29 527.604C1127.27 528.685 1127.64 530.189 1127.3 531.598L1126.43 535.161 1129.79 533.693C1131.12 533.103 1132.66 533.21 1133.89 533.977L1137.01 535.904 1136.65 532.264C1136.59 531.515 1136.69 530.792 1136.96 530.135Z" fill="#D32424"/></g></g></g><g clip-path="url(#clip18)"><g clip-path="url(#clip19)"><g clip-path="url(#clip20)"><path d="M1038 729.129 1058.78 783.263 1048.95 766.553C1044.94 759.697 1036.55 756.762 1029.14 759.628 1020.79 762.835 1016.6 772.239 1019.81 780.594L1019.98 781.045C1021.62 785.311 1024.99 788.689 1029.24 790.352L1056.05 800.79 1043.11 826.487C1041.06 830.572 1040.83 835.331 1042.46 839.6L1042.63 840.051C1045.84 848.406 1055.24 852.593 1063.6 849.386 1071.02 846.56 1075.29 838.767 1073.69 830.991L1069.81 811.996 1090.59 866.127 1116.57 856.153 1113.85 849.068 1201.25 815.519 1154.1 692.693 1137.56 699.04 1139.38 703.764 1151.19 699.23 1169.32 746.471 1086.65 778.206 1085.4 774.942 1106.84 751.485C1110.09 747.927 1111.04 742.918 1109.31 738.416L1108.83 737.169C1106.33 730.657 1099 727.393 1092.49 729.893 1085.98 732.393 1082.71 739.724 1085.21 746.236L1087.03 750.96 1091.75 749.147 1089.94 744.423C1088.44 740.516 1090.4 736.117 1094.3 734.617 1098.21 733.117 1102.61 735.076 1104.11 738.982L1104.59 740.23C1105.63 742.932 1105.06 745.936 1103.11 748.071L1083.37 769.662 1068.51 730.967 1108.67 715.553 1106.85 710.829 1066.7 726.243 1063.98 719.157 1038 729.131 1038 729.129ZM1076.11 798.512 1069.81 797.899 1068.21 793.732 1072.48 789.064 1083.73 784.744 1087.36 794.192 1076.11 798.512ZM1089.18 798.916 1089.52 799.819 1087.37 799.609 1089.18 798.916ZM1031.08 785.636C1028.15 784.493 1025.84 782.168 1024.71 779.232L1024.53 778.781C1022.33 773.031 1025.21 766.559 1030.96 764.352 1036.05 762.379 1041.83 764.397 1044.59 769.115L1059.96 795.257 1058.87 796.452 1031.08 785.636ZM1061.79 844.662C1056.04 846.869 1049.56 843.987 1047.36 838.238L1047.18 837.787C1046.06 834.849 1046.22 831.573 1047.64 828.762L1061.05 802.129 1062.66 802.285 1068.73 832.001C1069.83 837.353 1066.89 842.717 1061.79 844.662ZM1110.03 853.244 1093.5 859.591 1072.64 805.264 1076.81 803.664 1091.55 805.101 1109.12 850.881 1110.03 853.244ZM1194.71 812.609 1112.03 844.344 1097.18 805.649 1126.3 808.486C1129.18 808.765 1131.61 810.618 1132.65 813.32L1133.12 814.567C1134.62 818.474 1132.67 822.874 1128.76 824.374 1124.85 825.873 1120.45 823.915 1118.95 820.008L1117.14 815.284 1112.41 817.097 1114.23 821.821C1116.73 828.333 1124.06 831.598 1130.57 829.098 1137.08 826.598 1140.35 819.266 1137.85 812.754L1137.37 811.507C1135.64 807.005 1131.59 803.916 1126.79 803.45L1095.15 800.368 1093.9 797.104 1176.57 765.369 1194.71 812.609ZM1171.13 751.196 1174.76 760.644 1092.09 792.379 1088.46 782.93 1171.13 751.196ZM1081.92 780.02 1080.12 780.712 1081.58 779.117 1081.92 780.02ZM1061.07 725.693 1079.55 773.836 1069.55 784.767 1065.39 786.367 1044.53 732.04 1061.07 725.693Z" fill="#D81E06"/><path d="M1099.23 712.137C1100.71 716.014 1103.88 719.005 1107.84 720.264L1117.02 723.187 1112.15 731.498C1110.06 735.082 1109.7 739.426 1111.19 743.303 1113.89 750.351 1121.8 753.872 1128.85 751.166 1141.54 746.296 1150.95 735.408 1153.94 722.151L1157.17 707.773 1145.15 699.254C1134.06 691.399 1119.78 689.607 1107.09 694.477 1100.04 697.182 1096.52 705.089 1099.23 712.137Z" fill="#D81E06"/></g></g></g><g clip-path="url(#clip21)"><g clip-path="url(#clip22)"><g clip-path="url(#clip23)"><path d="M1476.93 1017.04 1529.9 993.451 1513.73 1004.14C1507.09 1008.5 1504.6 1017.03 1507.85 1024.28 1511.49 1032.45 1521.1 1036.14 1529.27 1032.5L1529.71 1032.31C1533.89 1030.44 1537.09 1026.91 1538.52 1022.57L1547.54 995.252 1573.88 1006.83C1578.07 1008.66 1582.84 1008.65 1587.01 1006.8L1587.45 1006.6C1595.63 1002.96 1599.32 993.349 1595.68 985.174 1592.47 977.912 1584.46 974.052 1576.78 976.064L1558.02 980.93 1610.98 957.346 1599.66 931.921 1592.73 935.008 1554.65 849.488 1434.46 903.001 1441.67 919.18 1446.29 917.122 1441.14 905.565 1487.37 884.983 1523.39 965.881 1520.2 967.304 1495.65 947.117C1491.92 944.053 1486.87 943.369 1482.47 945.33L1481.25 945.874C1474.88 948.711 1472 956.203 1474.84 962.576 1477.67 968.949 1485.17 971.825 1491.54 968.988L1496.16 966.93 1494.1 962.307 1489.48 964.365C1485.66 966.067 1481.16 964.341 1479.46 960.518 1477.76 956.694 1479.48 952.198 1483.31 950.496L1484.53 949.953C1487.17 948.776 1490.2 949.186 1492.43 951.024L1515.03 969.607 1477.16 986.465 1459.67 947.172 1455.05 949.23 1472.54 988.523 1465.61 991.611 1476.93 1017.04 1476.93 1017.04ZM1544.22 975.344 1543.94 981.662 1539.86 983.477 1534.97 979.46 1530.07 968.449 1539.32 964.332 1544.22 975.344ZM1543.94 962.274 1544.82 961.88 1544.73 964.039 1543.94 962.274ZM1533.72 1020.98C1532.73 1023.97 1530.53 1026.4 1527.66 1027.68L1527.21 1027.88C1521.59 1030.39 1514.97 1027.85 1512.47 1022.22 1510.23 1017.23 1511.95 1011.36 1516.51 1008.36L1541.81 991.638 1543.07 992.669 1533.72 1020.98ZM1591.06 987.232C1593.56 992.857 1591.02 999.472 1585.4 1001.98L1584.95 1002.17C1582.08 1003.45 1578.8 1003.46 1575.92 1002.19L1548.62 990.195 1548.69 988.577 1578.05 980.964C1583.34 979.578 1588.85 982.234 1591.06 987.232ZM1597.1 938.605 1604.3 954.784 1551.14 978.453 1549.33 974.376 1549.99 959.579 1594.79 939.634 1597.1 938.605ZM1552.09 856.172 1588.11 937.069 1550.24 953.928 1551.55 924.702C1551.68 921.812 1553.4 919.286 1556.05 918.109L1557.27 917.565C1561.09 915.863 1565.59 917.589 1567.29 921.413 1568.99 925.236 1567.27 929.732 1563.44 931.434L1558.82 933.492 1560.88 938.115 1565.5 936.057C1571.87 933.22 1574.75 925.727 1571.91 919.354 1569.08 912.982 1561.58 910.106 1555.21 912.943L1553.99 913.486C1549.59 915.447 1546.71 919.659 1546.5 924.476L1545.08 956.228 1541.88 957.651 1505.86 876.753 1552.09 856.172ZM1492 882.928 1501.24 878.812 1537.26 959.709 1528.01 963.826 1492 882.928ZM1525.45 970.506 1526.23 972.272 1524.57 970.9 1525.45 970.506ZM1472.29 994.175 1519.4 973.201 1530.84 982.609 1532.65 986.686 1479.49 1010.36 1472.29 994.175Z" fill="#D81E06"/><path d="M1456.75 956.779C1460.55 955.09 1463.37 951.767 1464.42 947.75L1466.86 938.433 1475.41 942.855C1479.1 944.763 1483.46 944.89 1487.25 943.201 1494.15 940.13 1497.25 932.049 1494.18 925.152 1488.65 912.738 1477.29 903.907 1463.89 901.619L1449.36 899.139 1441.48 911.595C1434.22 923.08 1433.18 937.436 1438.71 949.85 1441.78 956.748 1449.86 959.849 1456.75 956.779Z" fill="#D81E06"/></g></g></g></g></svg>